<svg width="100" height="100" viewBox="0 0 100 100" fill="none" xmlns="http://www.w3.org/2000/svg">
<path fill-rule="evenodd" clip-rule="evenodd" d="M77 43V63C72 63 65 62 62 65C60 67 59 69 59 72V97C59 98 60 100 62 100H74C76 100 77 98 77 96V80H90C93 80 96 78 97 76C98 75 98 74 99 73C100 70 100 51 100 46C100 42 99 40 98 37C97 35 94 33 91 33C87 33 85 34 83 35C81 36 79 39 79 42L77 43Z" fill="white"/>
<path fill-rule="evenodd" clip-rule="evenodd" d="M1 46C1 50 1 70 2 72C3 76 7 79 11 79H24V95C24 97 25 99 27 99H39C40 99 42 98 42 96V71C42 68 41 66 39 64C36 61 29 62 24 62V42C24 39 22 36 20 35C15 31 8 32 5 37C3 39 3 42 3 46H1Z" fill="white"/>
<path fill-rule="evenodd" clip-rule="evenodd" d="M30 39V53C30 55 31 55 32 55H68C70 55 70 54 70 53V39C70 36 69 33 67 31C65 29 61 27 59 27C58 27 58 28 57 29C57 30 56 31 56 32C55 34 55 36 54 38L51 47C51 48 50 49 50 50C50 49 48 45 48 44C47 42 47 40 46 38L43 30C42 28 43 26 37 29C36 30 35 30 34 31C32 33 31 36 31 39H30Z" fill="white"/>
<path fill-rule="evenodd" clip-rule="evenodd" d="M0 17C0 21 1 23 4 26C6 28 9 29 12 29C19 29 24 24 24 17C24 5 7 -4.76837e-06 1 12C0 13 0 15 0 17Z" fill="white"/>
<path fill-rule="evenodd" clip-rule="evenodd" d="M38 11C38 15 39 18 41 20C49 28 61 22 61 12C61 8 60 5 57 3C52 -1 45 -1 40 3C38 5 36 8 36 11H38Z" fill="white"/>
<path fill-rule="evenodd" clip-rule="evenodd" d="M76 18C76 22 77 24 80 27C88 35 100 28 100 19C100 16 100 14 98 11C98 11 98 11 97 10L96 9C96 9 96 9 95 8C94 8 94 7 93 7C86 4 76 9 76 18Z" fill="white"/>
<path fill-rule="evenodd" clip-rule="evenodd" d="M47 29C47 30 48 31 49 32C50 33 48 37 49 40C49 41 50 43 50 43C51 42 51 41 51 40C52 38 51 38 51 36C51 35 51 32 51 32C51 31 53 30 53 29C53 27 51 27 49 27C48 27 47 28 47 28V29Z" fill="white"/>
</svg>
