<svg width="100" height="100" viewBox="0 0 100 100" fill="none" xmlns="http://www.w3.org/2000/svg">
<path fill-rule="evenodd" clip-rule="evenodd" d="M31 87H15C12 87 12 81 15 81H31C35 81 35 87 31 87ZM63 100H9C4 100 0 96 0 91V21C0 16 4 12 9 12H17C18 12 17 13 19 17C20 18 21 20 22 21C23 22 24 23 26 23C27 24 29 24 31 24H46C51 24 55 21 57 17C58 16 58 14 58 12H67C70 12 73 14 75 17C77 20 76 24 76 28C76 36 76 45 76 53C73 53 68 55 66 57C65 58 64 58 63 59C64 56 62 55 60 55H17C12 55 12 61 17 61H60C61 61 61 61 61 61L59 64C58 65 58 66 57 68H17C15 68 14 69 14 70C14 74 17 73 22 73C33 73 44 73 55 73C55 76 55 75 55 79C55 85 58 90 61 94C62 95 64 97 64 98L63 100ZM58 50H16C15 50 14 50 13 49C11 48 11 44 15 44H59C63 44 64 50 58 50ZM59 37H15C11 37 11 31 15 31H59C60 31 61 31 61 32C63 34 61 37 59 37Z" fill="white"/>
<path fill-rule="evenodd" clip-rule="evenodd" d="M71 80C71 78 73 75 76 78C77 79 77 79 78 80C81 78 83 73 87 73C88 73 90 74 90 76C90 78 88 79 86 81C84 83 83 84 82 86C79 89 77 86 74 83C73 82 72 81 72 80H71ZM100 79V80C100 84 99 88 96 91C95 93 93 95 91 96C89 97 86 98 84 99C79 100 76 99 71 98C70 97 69 97 68 96C65 94 63 91 61 88C60 86 59 82 59 80C59 77 60 74 61 72C63 67 66 64 71 62C76 59 82 60 88 62C91 63 94 66 96 69C97 70 97 71 98 72C99 75 100 77 100 80V79Z" fill="white"/>
<path fill-rule="evenodd" clip-rule="evenodd" d="M31 5C29 5 27 6 26 7L25 8C23 10 23 13 24 16C25 19 28 20 32 20H44C48 20 52 18 52 14C52 11 52 10 50 8C49 7 47 6 45 6C44 5 44 4 43 3C42 2 40 2 39 2H38C36 2 34 3 33 5C33 6 32 6 32 7L31 5Z" fill="white"/>
</svg>
