<?xml version="1.0" encoding="UTF-8"?>
<!DOCTYPE svg PUBLIC "-//W3C//DTD SVG 1.1//EN" "http://www.w3.org/Graphics/SVG/1.1/DTD/svg11.dtd">
<!-- Creator: CorelDRAW 2021 (64-Bit) -->
<svg xmlns="http://www.w3.org/2000/svg" xml:space="preserve" width="249px" height="249px" version="1.1" style="shape-rendering:geometricPrecision; text-rendering:geometricPrecision; image-rendering:optimizeQuality; fill-rule:evenodd; clip-rule:evenodd"
viewBox="0 0 19 19"
 xmlns:xlink="http://www.w3.org/1999/xlink"
 xmlns:xodm="http://www.corel.com/coreldraw/odm/2003">
 <defs>
  <style type="text/css">
   <![CDATA[
    .fil0 {fill:url(#id0);fill-rule:nonzero}
   ]]>
  </style>
  <linearGradient id="id0" gradientUnits="userSpaceOnUse" x1="9" y1="-4" x2="9" y2="23">
   <stop offset="0" style="stop-opacity:1; stop-color:#43AAEB"/>
   <stop offset="0.529412" style="stop-opacity:1; stop-color:#4596E0"/>
   <stop offset="1" style="stop-opacity:1; stop-color:#4881D4"/>
  </linearGradient>
 </defs>
 <g id="Layer_x0020_1">
  <metadata id="CorelCorpID_0Corel-Layer"/>
  <path class="fil0" d="M1 0l16 0c1,0 1,1 1,1l0 16c0,1 -1,1 -1,1l-16 0c-1,0 -1,-1 -1,-1l0 -16c0,-1 1,-1 1,-1zm16 1l-4 0 0 7c2,0 3,1 4,1l0 -8c0,0 0,-1 -1,-1zm-4 8l0 8 4 0c0,0 1,0 1,-1l0 -6c-1,-1 -3,-1 -4,-2zm-1 -8l-10 0c0,0 -1,0 -1,1l0 8c4,-1 7,-2 11,-1l0 -7zm-11 9l0 7c0,0 0,1 1,1l10 0 0 -9c0,0 0,0 0,0 -4,0 -7,0 -10,1 0,0 0,0 0,0zm0 -10c-1,0 -1,0 -1,1l0 16c0,1 0,1 1,1l16 0c1,0 1,0 1,-1l0 -16c0,-1 0,-1 -1,-1l-16 0z"/>
 </g>
</svg>
