<svg width="100" height="94" viewBox="0 0 100 94" fill="none" xmlns="http://www.w3.org/2000/svg">
<g clip-path="url(#clip0_1_96)">
<path fill-rule="evenodd" clip-rule="evenodd" d="M13 77C13 76 14 74 16 74H61C62 74 64 76 64 77C64 78 63 80 61 80H17C16 80 14 78 14 77H13ZM35 64V43C35 41 36 40 38 40H61C62 40 63 41 63 41C63 42 64 42 64 43V64C64 66 63 67 61 67H39C38 67 36 66 36 64H35ZM13 60C13 59 14 57 16 57H26C27 57 29 59 29 60C29 61 28 63 26 63H16C15 63 13 61 13 60ZM13 47C13 46 14 44 16 44H26C27 44 29 46 29 47C29 48 28 50 26 50H16C15 50 13 48 13 47ZM13 30C13 29 14 27 16 27H61C62 27 64 29 64 30C64 31 63 33 61 33H17C16 33 16 32 15 32C15 32 14 31 14 30H13ZM13 17C13 16 14 14 16 14H61C62 14 64 16 64 17C64 18 63 20 61 20H17C16 20 14 18 14 17H13ZM0 3V80C0 83 2 86 3 88C7 94 14 94 20 94H77C77 93 76 93 76 92C75 90 74 88 74 85V4C74 2 73 0 71 0H2C1 0 -1 1 -1 3H0Z" fill="white"/>
<path fill-rule="evenodd" clip-rule="evenodd" d="M81 85C81 91 88 96 94 93C97 92 100 88 100 85V23C100 21 98 20 97 20H80V84L81 85Z" fill="white"/>
<path fill-rule="evenodd" clip-rule="evenodd" d="M40 61H56V45H40V61Z" fill="white"/>
</g>
<defs>
<clipPath id="clip0_1_96">
<rect width="100" height="94" fill="white"/>
</clipPath>
</defs>
</svg>
