<svg width="100" height="100" viewBox="0 0 100 100" fill="none" xmlns="http://www.w3.org/2000/svg">
<g clip-path="url(#clip0_1_82)">
<path fill-rule="evenodd" clip-rule="evenodd" d="M10 62C10 69 16 75 22 75C25 75 27 75 30 73C32 72 33 70 34 68C35 65 36 61 34 58C33 55 31 53 28 52C20 48 10 54 10 63V62ZM0 15V47C0 48 1 50 4 50C5 50 8 48 9 47C11 46 12 45 13 44C14 43 14 43 15 43C18 41 21 42 25 42C30 42 35 42 40 42C44 42 46 42 49 40C50 40 51 39 51 38L48 36C47 35 46 34 46 33C45 31 44 29 44 25V8C43 8 43 8 42 8H8C3 8 0 12 0 15ZM50 7V27C50 29 51 31 53 32C55 33 57 33 60 33C66 33 71 33 77 33C85 33 83 33 90 37C93 39 96 42 98 41C99 41 100 40 100 38V6C100 2 97 -1 93 -1H57C53 -1 50 2 50 6V7ZM76 75C80 75 83 74 86 71C91 66 91 58 86 54C82 50 76 49 71 51C70 52 68 53 68 54C67 56 67 55 66 58C64 63 66 69 70 73C72 74 74 75 77 75H76ZM54 91V97C54 99 55 100 57 100H97C98 100 100 98 100 97V90C100 87 99 85 97 82C95 80 92 79 89 79H66C60 79 54 84 54 91ZM0 90V98C0 99 2 101 3 101H43C44 101 46 99 46 98V92C46 86 41 80 34 80H11C7 80 3 83 1 86C0 87 0 89 0 90Z" fill="white"/>
</g>
<defs>
<clipPath id="clip0_1_82">
<rect width="100" height="100" fill="white"/>
</clipPath>
</defs>
</svg>
